<svg width="1200" height="630" viewBox="0 0 1200 630" xmlns="http://www.w3.org/2000/svg">
  <defs>
    <linearGradient id="bg" x1="0%" y1="0%" x2="100%" y2="100%">
      <stop offset="0%" stop-color="#2DD4B0"/>
      <stop offset="100%" stop-color="#0A9B78"/>
    </linearGradient>
    <radialGradient id="blob1" cx="10%" cy="15%" r="50%">
      <stop offset="0%" stop-color="#5DDFC5" stop-opacity="0.55"/>
      <stop offset="100%" stop-color="#2DD4B0" stop-opacity="0"/>
    </radialGradient>
    <radialGradient id="blob2" cx="90%" cy="90%" r="55%">
      <stop offset="0%" stop-color="#07724F" stop-opacity="0.5"/>
      <stop offset="100%" stop-color="#0A9B78" stop-opacity="0"/>
    </radialGradient>
  </defs>

  <rect width="1200" height="630" fill="url(#bg)"/>
  <rect width="1200" height="630" fill="url(#blob1)"/>
  <rect width="1200" height="630" fill="url(#blob2)"/>

  <circle cx="1080" cy="80"  r="220" fill="rgba(255,255,255,0.06)"/>
  <circle cx="1080" cy="80"  r="140" fill="rgba(255,255,255,0.06)"/>
  <circle cx="1080" cy="80"  r="60"  fill="rgba(255,255,255,0.07)"/>
  <circle cx="120"  cy="560" r="180" fill="rgba(0,0,0,0.05)"/>
  <circle cx="120"  cy="560" r="100" fill="rgba(0,0,0,0.04)"/>

  <!-- App icon -->
  <rect x="80" y="172" width="72" height="72" rx="18" fill="rgba(255,255,255,0.2)"/>
  <circle cx="103" cy="197" r="8"  fill="rgba(255,255,255,0.7)"/>
  <path d="M87,215 Q103,206 119,215 L119,226 L87,226 Z" fill="rgba(255,255,255,0.7)"/>
  <circle cx="128" cy="193" r="11" fill="white"/>
  <path d="M110,215 Q128,204 146,215 L146,226 L110,226 Z" fill="white"/>
  <circle cx="142" cy="228" r="13" fill="white"/>
  <circle cx="142" cy="228" r="9"  fill="none" stroke="#0A9B78" stroke-width="1.8"/>
  <line x1="142" y1="228" x2="142" y2="222" stroke="#0A9B78" stroke-width="1.8" stroke-linecap="round"/>
  <line x1="142" y1="228" x2="147" y2="232" stroke="#0A9B78" stroke-width="1.8" stroke-linecap="round"/>

  <!-- Tag -->
  <rect x="80" y="278" width="168" height="34" rx="17" fill="rgba(255,255,255,0.18)" stroke="rgba(255,255,255,0.3)" stroke-width="1"/>
  <text x="164" y="300" text-anchor="middle" font-family="system-ui,'Apple SD Gothic Neo',sans-serif" font-size="14" fill="rgba(255,255,255,0.9)">Team Scheduler</text>

  <!-- Headline -->
  <text x="80" y="400" font-family="system-ui,'Apple SD Gothic Neo',sans-serif" font-size="88" font-weight="700" fill="white">모두의 일정을</text>
  <text x="80" y="498" font-family="system-ui,'Apple SD Gothic Neo',sans-serif" font-size="88" font-weight="700" fill="white">한번에</text>

  <!-- Subtext -->
  <text x="80" y="555" font-family="system-ui,'Apple SD Gothic Neo',sans-serif" font-size="26" fill="rgba(255,255,255,0.75)">링크 하나로 모두의 가능 시간을 수집하세요</text>

  <!-- URL -->
  <text x="80" y="605" font-family="system-ui,sans-serif" font-size="18" fill="rgba(255,255,255,0.5)">when2work.whitejbb.cloud</text>
</svg>
